<svg width="29" height="30" viewBox="0 0 29 30" fill="none" xmlns="http://www.w3.org/2000/svg">
<path d="M21.9857 13.6333C21.9857 14.3445 21.4256 14.9211 20.7346 14.9211H7.39045C6.69953 14.9211 6.13943 14.3445 6.13943 13.6333C6.13943 12.9221 6.69953 12.3455 7.39045 12.3455H20.7346C21.4256 12.3455 21.9857 12.9221 21.9857 13.6333Z" fill="black"/>
<path fill-rule="evenodd" clip-rule="evenodd" d="M1.36152 8.7341L3.34434 3.1579C3.84405 1.7526 5.05601 0.745622 6.4959 0.53936C11.5162 -0.179786 16.609 -0.179787 21.6293 0.539359C23.0692 0.745622 24.2812 1.75262 24.7809 3.15793L26.7638 8.73463C27.1347 9.33023 27.3901 10.0111 27.4974 10.7451L27.6674 11.909C28.3342 16.4739 28.2719 21.1203 27.4828 25.6646C27.133 27.6792 25.5257 29.2094 23.5473 29.4116L21.4949 29.6212C16.5521 30.1262 11.5729 30.1262 6.63011 29.6212L4.57767 29.4116C2.59926 29.2094 0.992029 27.6792 0.642199 25.6646C-0.146895 21.1203 -0.209243 16.4739 0.457622 11.909L0.627646 10.7451C0.734902 10.0109 0.990475 9.32983 1.36152 8.7341ZM6.84076 3.09032C11.6322 2.40395 16.493 2.40395 21.2844 3.09032C21.8084 3.16537 22.2494 3.53181 22.4313 4.0432L23.2756 6.41781C23.2 6.40648 23.1238 6.39687 23.0471 6.38903L21.4155 6.22233C16.5255 5.72272 11.5995 5.72272 6.70954 6.22233L5.0779 6.38903C5.00126 6.39686 4.92514 6.40646 4.84955 6.41779L5.69393 4.04319C5.87576 3.53181 6.31679 3.16538 6.84076 3.09032ZM3.53007 10.0292L3.5612 10.041L3.59982 9.93235C4.00972 9.39001 4.62542 9.02346 5.32502 8.95198L6.95667 8.78527C11.6823 8.30246 16.4427 8.30246 21.1683 8.78527L22.8 8.95198C23.4997 9.02347 24.1155 9.39017 24.5254 9.9327L24.5639 10.0409L24.5949 10.0293C24.8137 10.3484 24.9638 10.722 25.0231 11.1281L25.1932 12.2919C25.8195 16.5794 25.7609 20.9434 25.0198 25.2114C24.8669 26.0916 24.1647 26.7603 23.3002 26.8486L21.2478 27.0583C16.4693 27.5465 11.6557 27.5465 6.87723 27.0583L4.82479 26.8486C3.96033 26.7603 3.25805 26.0916 3.10519 25.2114C2.36407 20.9434 2.30551 16.5794 2.93184 12.2919L3.10186 11.1281C3.16119 10.722 3.31135 10.3484 3.53007 10.0292Z" fill="black"/>
</svg>
