<svg width="16" height="11" viewBox="0 0 16 11" fill="none" xmlns="http://www.w3.org/2000/svg">
<path d="M6.11407 1.48249C6.45321 1.14335 6.45321 0.593494 6.11407 0.254355C5.77493 -0.0847849 5.22507 -0.0847849 4.88593 0.254355L0.254355 4.88593C0.0847849 5.0555 0 5.27775 0 5.5C0 5.61775 0.0234347 5.73002 0.0658947 5.83242C0.108273 5.93484 0.171093 6.0308 0.254355 6.11407L4.88593 10.7456C5.22507 11.0848 5.77493 11.0848 6.11407 10.7456C6.45321 10.4065 6.45321 9.85665 6.11407 9.51751L2.96497 6.36842H14.1842C14.6638 6.36842 15.0526 5.97962 15.0526 5.5C15.0526 5.02038 14.6638 4.63158 14.1842 4.63158H2.96497L6.11407 1.48249Z" fill="black"/>
</svg>
