<svg width="31" height="30" viewBox="0 0 31 30" fill="none" xmlns="http://www.w3.org/2000/svg">
<path fill-rule="evenodd" clip-rule="evenodd" d="M2.45376 20.33C-1.50142 10.6218 5.6407 0 16.1237 0H16.6892C24.529 0 30.8845 6.35544 30.8845 14.1953C30.8845 22.924 23.8085 30 15.0797 30H1.31972C0.759738 30 0.260731 29.6466 0.0748757 29.1183C-0.110979 28.5901 0.0567926 28.0021 0.493408 27.6514L3.96231 24.8656C4.11398 24.7438 4.16764 24.5368 4.09424 24.3567L2.45376 20.33ZM16.1237 2.6393C7.51509 2.6393 1.65001 11.3619 4.89799 19.3342L6.53847 23.3609C7.05225 24.622 6.67667 26.0708 5.61494 26.9234L5.07046 27.3607H15.0797C22.3508 27.3607 28.2452 21.4663 28.2452 14.1953C28.2452 7.81308 23.0714 2.6393 16.6892 2.6393H16.1237Z" fill="black"/>
</svg>
