<svg width="18" height="30" viewBox="0 0 18 30" fill="none" xmlns="http://www.w3.org/2000/svg">
<path fill-rule="evenodd" clip-rule="evenodd" d="M6.51952 2.36568C8.03424 0.850959 10.0886 0 12.2308 0H16.3846C17.0219 0 17.5385 0.516595 17.5385 1.15385V6.69231C17.5385 7.32956 17.0219 7.84615 16.3846 7.84615H12.2308C12.1696 7.84615 12.1109 7.87047 12.0676 7.91374C12.0243 7.95702 12 8.01572 12 8.07692V11.0769H16.3846C16.7399 11.0769 17.0754 11.2406 17.2941 11.5207C17.5127 11.8007 17.5902 12.1659 17.504 12.5106L16.1194 18.0491C15.991 18.5627 15.5295 18.9231 15 18.9231H12V28.8462C12 29.4834 11.4834 30 10.8462 30H5.30769C4.67044 30 4.15385 29.4834 4.15385 28.8462V18.9231H1.15385C0.516595 18.9231 0 18.4065 0 17.7692V12.2308C0 11.5935 0.516595 11.0769 1.15385 11.0769H4.15385V8.07692C4.15385 5.93479 5.0048 3.88039 6.51952 2.36568ZM12.2308 2.30769C10.7007 2.30769 9.23325 2.91552 8.15131 3.99746C7.06937 5.0794 6.46154 6.54683 6.46154 8.07692V12.2308C6.46154 12.868 5.94494 13.3846 5.30769 13.3846H2.30769V16.6154H5.30769C5.94494 16.6154 6.46154 17.132 6.46154 17.7692V27.6923H9.69231V17.7692C9.69231 17.132 10.2089 16.6154 10.8462 16.6154H14.0991L14.9068 13.3846H10.8462C10.2089 13.3846 9.69231 12.868 9.69231 12.2308V8.07692C9.69231 7.40368 9.95975 6.75801 10.4358 6.28196C10.9119 5.80591 11.5575 5.53846 12.2308 5.53846H15.2308V2.30769H12.2308Z" fill="black"/>
</svg>
