<svg width="26" height="30" viewBox="0 0 26 30" fill="none" xmlns="http://www.w3.org/2000/svg">
<path fill-rule="evenodd" clip-rule="evenodd" d="M22.3925 2.97966C15.9274 2.25709 9.40185 2.25709 2.93671 2.97966C2.49927 3.02855 2.28861 3.54153 2.56545 3.88375L8.28115 10.9492C10.3287 13.4802 11.4457 16.6372 11.4457 19.8927V24.5881L13.8835 26.3758V19.8927C13.8835 16.6372 15.0005 13.4802 17.0481 10.9492L22.7638 3.88374C23.0406 3.54153 22.8299 3.02855 22.3925 2.97966ZM2.66595 0.557015C9.31103 -0.185671 16.0182 -0.185672 22.6633 0.557014C25.0147 0.819827 26.1471 3.57737 24.659 5.41692L18.9433 12.4824C17.2468 14.5795 16.3212 17.1953 16.3212 19.8927V28.7811C16.3212 29.2404 16.063 29.6608 15.6533 29.8684C15.2436 30.076 14.7519 30.0356 14.3815 29.764L9.50608 26.1887C9.19298 25.9591 9.00801 25.5941 9.00801 25.2058V19.8927C9.00801 17.1953 8.08244 14.5795 6.38592 12.4824L0.670222 5.41692C-0.817914 3.57737 0.314467 0.819827 2.66595 0.557015Z" fill="black"/>
</svg>
