<svg width="30" height="30" viewBox="0 0 30 30" fill="none" xmlns="http://www.w3.org/2000/svg">
<path fill-rule="evenodd" clip-rule="evenodd" d="M4.02439 0C1.80178 0 0 1.80178 0 4.02439C0 6.247 1.80178 8.04878 4.02439 8.04878C6.247 8.04878 8.04878 6.247 8.04878 4.02439C8.04878 1.80178 6.247 0 4.02439 0ZM2.19512 4.02439C2.19512 3.01411 3.01411 2.19512 4.02439 2.19512C5.03467 2.19512 5.85366 3.01411 5.85366 4.02439C5.85366 5.03467 5.03467 5.85366 4.02439 5.85366C3.01411 5.85366 2.19512 5.03467 2.19512 4.02439Z" fill="black"/>
<path fill-rule="evenodd" clip-rule="evenodd" d="M0 9.87805C0 9.27188 0.491395 8.78049 1.09756 8.78049H6.95122C7.55739 8.78049 8.04878 9.27188 8.04878 9.87805V28.9024C8.04878 29.5086 7.55739 30 6.95122 30H1.09756C0.491395 30 0 29.5086 0 28.9024V9.87805ZM2.19512 10.9756V27.8049H5.85366V10.9756H2.19512Z" fill="black"/>
<path fill-rule="evenodd" clip-rule="evenodd" d="M10.2439 9.87805C10.2439 9.27188 10.7353 8.78049 11.3415 8.78049H17.1951C17.8013 8.78049 18.2927 9.27188 18.2927 9.87805V10.5132L18.9297 10.2402C20.0248 9.77087 21.1959 9.47655 22.3804 9.36888C26.4413 8.9997 30 12.1908 30 16.2882V28.9024C30 29.5086 29.5086 30 28.9024 30H23.0488C22.4426 30 21.9512 29.5086 21.9512 28.9024V18.6585C21.9512 18.1734 21.7585 17.7081 21.4154 17.3651C21.0724 17.022 20.6071 16.8293 20.122 16.8293C19.6368 16.8293 19.1715 17.022 18.8285 17.3651C18.4854 17.7081 18.2927 18.1734 18.2927 18.6585V28.9024C18.2927 29.5086 17.8013 30 17.1951 30H11.3415C10.7353 30 10.2439 29.5086 10.2439 28.9024V9.87805ZM12.439 10.9756V27.8049H16.0976V18.6585C16.0976 17.5912 16.5216 16.5676 17.2763 15.8129C18.031 15.0581 19.0546 14.6341 20.122 14.6341C21.1893 14.6341 22.2129 15.0581 22.9676 15.8129C23.7223 16.5676 24.1463 17.5912 24.1463 18.6585V27.8049H27.8049V16.2882C27.8049 13.5013 25.3742 11.3009 22.5791 11.555C21.622 11.642 20.6758 11.8801 19.7944 12.2578L17.6275 13.1865C17.2884 13.3318 16.8989 13.2971 16.5909 13.094C16.2829 12.8909 16.0976 12.5466 16.0976 12.1777V10.9756H12.439Z" fill="black"/>
</svg>
