<svg width="30" height="25" viewBox="0 0 30 25" fill="none" xmlns="http://www.w3.org/2000/svg">
<path fill-rule="evenodd" clip-rule="evenodd" d="M0.307863 6.23076C-0.139697 10.3892 -0.119747 15.1852 0.503039 19.3267C0.84764 21.6183 2.71792 23.3751 5.02657 23.5758L7.43934 23.7855C12.4703 24.2229 17.5297 24.2229 22.5606 23.7855L24.9734 23.5758C27.2821 23.3751 29.1523 21.6183 29.4969 19.3267C30.1197 15.1852 30.1397 10.3894 29.6921 6.23101C29.6343 5.74891 29.5692 5.26746 29.4969 4.78682C29.1523 2.49523 27.2821 0.738422 24.9734 0.537735L22.5606 0.327998C17.5297 -0.109333 12.4703 -0.109333 7.43933 0.327998L5.02657 0.537735C2.71791 0.738422 0.84764 2.49523 0.503039 4.78682C0.430775 5.26738 0.365716 5.74875 0.307863 6.23076ZM7.64687 2.71541C12.5397 2.29008 17.4603 2.29008 22.3531 2.71541L24.7659 2.92515C25.971 3.02991 26.9473 3.94696 27.1272 5.14318C27.1458 5.26741 27.164 5.39169 27.1817 5.51603L18.2974 10.4518C16.2467 11.591 13.7532 11.591 11.7025 10.4518L2.81828 5.51609C2.83595 5.39173 2.85413 5.26743 2.87281 5.14318C3.05269 3.94696 4.02898 3.02991 5.2341 2.92515L7.64687 2.71541ZM27.4749 8.09452C27.7848 11.7175 27.6689 15.3678 27.1272 18.9703C26.9473 20.1666 25.971 21.0836 24.7659 21.1884L22.3531 21.3981C17.4603 21.8234 12.5397 21.8234 7.64687 21.3981L5.2341 21.1884C4.02898 21.0836 3.05269 20.1666 2.87281 18.9703C2.33108 15.3678 2.21515 11.7175 2.52504 8.09458L10.5387 12.5466C13.3131 14.088 16.6867 14.088 19.4612 12.5466L27.4749 8.09452Z" fill="black"/>
</svg>
