<svg width="30" height="33" viewBox="0 0 30 33" fill="none" xmlns="http://www.w3.org/2000/svg">
<path fill-rule="evenodd" clip-rule="evenodd" d="M6.77419 8.22581C6.77419 3.68282 10.457 0 15 0C19.543 0 23.2258 3.68282 23.2258 8.22581C23.2258 12.7688 19.543 16.4516 15 16.4516C10.457 16.4516 6.77419 12.7688 6.77419 8.22581ZM15 2.90323C12.0604 2.90323 9.67742 5.28623 9.67742 8.22581C9.67742 11.1654 12.0604 13.5484 15 13.5484C17.9396 13.5484 20.3226 11.1654 20.3226 8.22581C20.3226 5.28623 17.9396 2.90323 15 2.90323Z" fill="black"/>
<path fill-rule="evenodd" clip-rule="evenodd" d="M7.25806 22.2581C4.85295 22.2581 2.90323 24.2078 2.90323 26.6129V28.9128C2.90323 28.9478 2.92861 28.9777 2.96317 28.9833C10.9349 30.2848 19.0651 30.2848 27.0368 28.9833C27.0714 28.9777 27.0968 28.9478 27.0968 28.9128V26.6129C27.0968 24.2078 25.147 22.2581 22.7419 22.2581H22.0822C22.0312 22.2581 21.9805 22.2661 21.932 22.282L20.2568 22.829C16.841 23.9443 13.159 23.9443 9.74319 22.829L8.06801 22.282C8.01951 22.2661 7.96882 22.2581 7.91781 22.2581H7.25806ZM0 26.6129C0 22.6044 3.24955 19.3548 7.25806 19.3548H7.91781C8.27489 19.3548 8.62973 19.4113 8.96917 19.5221L10.6444 20.0691C13.4746 20.9933 16.5254 20.9933 19.3556 20.0691L21.0308 19.5221C21.3703 19.4113 21.7251 19.3548 22.0822 19.3548H22.7419C26.7505 19.3548 30 22.6044 30 26.6129V28.9128C30 30.3707 28.9434 31.6137 27.5046 31.8486C19.223 33.2007 10.777 33.2007 2.49536 31.8486C1.05655 31.6137 0 30.3707 0 28.9128V26.6129Z" fill="black"/>
</svg>
