<svg width="20" height="20" viewBox="0 0 20 20" fill="none" xmlns="http://www.w3.org/2000/svg">
<path d="M10 1C10 1.55228 10.45 1.99344 10.998 2.06165C14.9453 2.55286 18 5.9197 18 10C18 14.4183 14.4183 18 10 18C5.9197 18 2.55286 14.9453 2.06165 10.998C1.99344 10.45 1.55228 10 1 10V10C0.447715 10 -0.00525253 10.449 0.0492364 10.9986C0.550312 16.0526 4.81417 20 10 20C15.5228 20 20 15.5228 20 10C20 4.81417 16.0526 0.550312 10.9986 0.0492363C10.449 -0.00525255 10 0.447715 10 1V1Z" fill="black"/>
</svg>
